# xmcd CD database file
#
# Track frame offsets:
#	150
#	18587
#	40942
#
# Disc length: 788 seconds
#
# Revision: 1
# Processed by: cddbd v1.5.1PL0 Copyright (c) Steve Scherf et al.
# Submitted via: CDex 1.51
#
DISCID=1d031203
DTITLE=sweet velvet - flame of love
DYEAR=1999
DGENRE=Vocal
TTITLE0=flame of love
TTITLE1=STAY
TTITLE2=flame of love[original karaoke]
EXTD=YEAR: 1999
EXTT0=
EXTT1=
EXTT2=
PLAYORDER=
